<mxfile host="app.diagrams.net" modified="2024-02-14T10:58:38.047Z" agent="Mozilla/5.0 (Windows NT 10.0; Win64; x64) AppleWebKit/537.36 (KHTML, like Gecko) Chrome/121.0.0.0 Safari/537.36" etag="yfCQIUIdiPakXIKjcnaT" version="23.1.4" type="device">
  <diagram name="Page-1" id="e7e014a7-5840-1c2e-5031-d8a46d1fe8dd">
    <mxGraphModel dx="1434" dy="746" grid="1" gridSize="10" guides="0" tooltips="1" connect="1" arrows="1" fold="1" page="1" pageScale="1" pageWidth="1169" pageHeight="826" background="none" math="0" shadow="0">
      <root>
        <mxCell id="0" />
        <mxCell id="1" parent="0" />
        <mxCell id="2" value="Kapitan " style="swimlane;whiteSpace=wrap" parent="1" vertex="1">
          <mxGeometry x="20" y="30" width="310" height="1300" as="geometry" />
        </mxCell>
        <mxCell id="EvHhExTTySvwsWycsZvn-63" value="" style="edgeStyle=orthogonalEdgeStyle;rounded=0;orthogonalLoop=1;jettySize=auto;html=1;" parent="2" source="5" target="JqCalTuAPM29PYD1mBbm-44" edge="1">
          <mxGeometry relative="1" as="geometry" />
        </mxCell>
        <mxCell id="5" value="" style="ellipse;shape=startState;fillColor=#000000;strokeColor=#ff0000;" parent="2" vertex="1">
          <mxGeometry x="100" y="30" width="30" height="30" as="geometry" />
        </mxCell>
        <mxCell id="JqCalTuAPM29PYD1mBbm-41" value="start" style="shape=note;whiteSpace=wrap;html=1;backgroundOutline=1;fontColor=#000000;darkOpacity=0.05;fillColor=#FFF9B2;strokeColor=none;fillStyle=solid;direction=west;gradientDirection=north;gradientColor=#FFF2A1;shadow=1;size=8;pointerEvents=1;" parent="2" vertex="1">
          <mxGeometry x="150" y="40" width="40" height="30" as="geometry" />
        </mxCell>
        <mxCell id="JqCalTuAPM29PYD1mBbm-44" value="Tworzenie nowego&amp;nbsp;&lt;br&gt;turnieju / ligi" style="rounded=1;whiteSpace=wrap;html=1;fillColor=#f8cecc;strokeColor=#b85450;" parent="2" vertex="1">
          <mxGeometry x="55" y="90" width="120" height="60" as="geometry" />
        </mxCell>
        <mxCell id="JqCalTuAPM29PYD1mBbm-45" value="" style="edgeStyle=none;strokeColor=#FF0000;endArrow=open;endFill=1;rounded=0;" parent="2" edge="1">
          <mxGeometry width="100" height="100" relative="1" as="geometry">
            <mxPoint x="175" y="119.5" as="sourcePoint" />
            <mxPoint x="410" y="120" as="targetPoint" />
          </mxGeometry>
        </mxCell>
        <mxCell id="EvHhExTTySvwsWycsZvn-72" value="Odebranie info.&lt;br&gt;o rozpoczęciu&amp;nbsp;&lt;br&gt;ligi / tunieju" style="rounded=1;whiteSpace=wrap;html=1;fillColor=#a0522d;strokeColor=#6D1F00;fontColor=#ffffff;" parent="2" vertex="1">
          <mxGeometry x="80" y="840" width="104" height="47" as="geometry" />
        </mxCell>
        <mxCell id="EvHhExTTySvwsWycsZvn-73" value="" style="endArrow=open;strokeColor=#FF0000;endFill=1;rounded=0" parent="2" edge="1">
          <mxGeometry relative="1" as="geometry">
            <mxPoint x="120" y="890" as="sourcePoint" />
            <mxPoint x="122" y="940" as="targetPoint" />
            <Array as="points" />
          </mxGeometry>
        </mxCell>
        <mxCell id="EvHhExTTySvwsWycsZvn-75" value="Wpisz zawodników&amp;nbsp;&lt;br&gt;do ligi / turnieju" style="rounded=1;whiteSpace=wrap;html=1;fillColor=#f8cecc;strokeColor=#b85450;" parent="2" vertex="1">
          <mxGeometry x="70" y="940" width="110" height="50" as="geometry" />
        </mxCell>
        <mxCell id="EvHhExTTySvwsWycsZvn-86" value="Start turnieju&amp;nbsp;" style="rounded=1;whiteSpace=wrap;html=1;fillColor=#f8cecc;strokeColor=#b85450;" parent="2" vertex="1">
          <mxGeometry x="70" y="1040" width="110" height="50" as="geometry" />
        </mxCell>
        <mxCell id="EvHhExTTySvwsWycsZvn-88" value="" style="endArrow=open;strokeColor=#FF0000;endFill=1;rounded=0;entryX=0.454;entryY=-0.041;entryDx=0;entryDy=0;entryPerimeter=0;" parent="2" target="EvHhExTTySvwsWycsZvn-86" edge="1">
          <mxGeometry relative="1" as="geometry">
            <mxPoint x="120" y="990" as="sourcePoint" />
            <mxPoint x="120" y="1030" as="targetPoint" />
            <Array as="points" />
          </mxGeometry>
        </mxCell>
        <mxCell id="EvHhExTTySvwsWycsZvn-71" value="" style="endArrow=open;strokeColor=#FF0000;endFill=1;rounded=0" parent="2" edge="1">
          <mxGeometry relative="1" as="geometry">
            <mxPoint x="350" y="860" as="sourcePoint" />
            <mxPoint x="190" y="860" as="targetPoint" />
            <Array as="points" />
          </mxGeometry>
        </mxCell>
        <mxCell id="3" value="Turniej" style="swimlane;whiteSpace=wrap" parent="1" vertex="1">
          <mxGeometry x="330" y="30" width="430" height="1300" as="geometry" />
        </mxCell>
        <mxCell id="EvHhExTTySvwsWycsZvn-47" value="Odbiór zgłoszenia" style="rounded=1;whiteSpace=wrap;html=1;fillColor=#f8cecc;strokeColor=#b85450;" parent="3" vertex="1">
          <mxGeometry x="130" y="340" width="104" height="47" as="geometry" />
        </mxCell>
        <mxCell id="EvHhExTTySvwsWycsZvn-49" value="" style="strokeWidth=2;html=1;shape=mxgraph.flowchart.decision;whiteSpace=wrap;fillColor=#d5e8d4;strokeColor=#82b366;" parent="3" vertex="1">
          <mxGeometry x="155.93000000000006" y="400" width="38.13" height="40" as="geometry" />
        </mxCell>
        <mxCell id="EvHhExTTySvwsWycsZvn-50" value="" style="endArrow=open;strokeColor=#FF0000;endFill=1;rounded=0;entryX=0;entryY=0.5;entryDx=0;entryDy=0;" parent="3" target="EvHhExTTySvwsWycsZvn-64" edge="1">
          <mxGeometry relative="1" as="geometry">
            <mxPoint x="190" y="430" as="sourcePoint" />
            <mxPoint x="290" y="430" as="targetPoint" />
            <Array as="points" />
          </mxGeometry>
        </mxCell>
        <mxCell id="EvHhExTTySvwsWycsZvn-51" value="" style="endArrow=open;strokeColor=#FF0000;endFill=1;rounded=0" parent="3" edge="1">
          <mxGeometry relative="1" as="geometry">
            <mxPoint x="170" y="440" as="sourcePoint" />
            <mxPoint x="100" y="520" as="targetPoint" />
            <Array as="points" />
          </mxGeometry>
        </mxCell>
        <mxCell id="EvHhExTTySvwsWycsZvn-52" value="nie" style="text;html=1;align=center;verticalAlign=middle;whiteSpace=wrap;rounded=0;" parent="3" vertex="1">
          <mxGeometry x="210" y="420" width="30" height="10" as="geometry" />
        </mxCell>
        <mxCell id="EvHhExTTySvwsWycsZvn-53" value="- czy gracz spełnia kryteria;&lt;br&gt;- czy zdążył terminie;&amp;nbsp;&lt;br&gt;- czy nie jest wolne miejsce;" style="text;html=1;align=center;verticalAlign=middle;whiteSpace=wrap;rounded=0;" parent="3" vertex="1">
          <mxGeometry y="400" width="160" height="40" as="geometry" />
        </mxCell>
        <mxCell id="EvHhExTTySvwsWycsZvn-54" value="tak" style="text;html=1;align=center;verticalAlign=middle;whiteSpace=wrap;rounded=0;" parent="3" vertex="1">
          <mxGeometry x="90" y="480" width="30" height="10" as="geometry" />
        </mxCell>
        <mxCell id="EvHhExTTySvwsWycsZvn-55" value="zapisz gracza do turnieju / ligi" style="rounded=1;whiteSpace=wrap;html=1;fillColor=#f8cecc;strokeColor=#b85450;" parent="3" vertex="1">
          <mxGeometry x="30" y="520" width="104" height="47" as="geometry" />
        </mxCell>
        <mxCell id="EvHhExTTySvwsWycsZvn-56" value="" style="endArrow=open;strokeColor=#FF0000;endFill=1;rounded=0;" parent="3" edge="1">
          <mxGeometry relative="1" as="geometry">
            <mxPoint x="80" y="570" as="sourcePoint" />
            <mxPoint x="80" y="660" as="targetPoint" />
            <Array as="points" />
          </mxGeometry>
        </mxCell>
        <mxCell id="EvHhExTTySvwsWycsZvn-58" value="" style="verticalLabelPosition=bottom;verticalAlign=top;html=1;shape=mxgraph.flowchart.collate;fillColor=#f8cecc;strokeColor=#b85450;" parent="3" vertex="1">
          <mxGeometry x="50" y="660" width="60" height="60" as="geometry" />
        </mxCell>
        <mxCell id="EvHhExTTySvwsWycsZvn-59" style="edgeStyle=orthogonalEdgeStyle;rounded=0;orthogonalLoop=1;jettySize=auto;html=1;exitX=0.5;exitY=1;exitDx=0;exitDy=0;exitPerimeter=0;" parent="3" source="EvHhExTTySvwsWycsZvn-58" target="EvHhExTTySvwsWycsZvn-58" edge="1">
          <mxGeometry relative="1" as="geometry" />
        </mxCell>
        <mxCell id="EvHhExTTySvwsWycsZvn-60" value="oczekiwanie na&lt;br&gt;rozpoczęcie" style="text;html=1;align=center;verticalAlign=middle;resizable=0;points=[];autosize=1;strokeColor=none;fillColor=none;" parent="3" vertex="1">
          <mxGeometry x="110" y="670" width="110" height="40" as="geometry" />
        </mxCell>
        <mxCell id="EvHhExTTySvwsWycsZvn-64" value="Wysłanie informacji o nieprzyjęciu zgłoszenia" style="rounded=1;whiteSpace=wrap;html=1;fillColor=#a0522d;strokeColor=#6D1F00;fontColor=#ffffff;" parent="3" vertex="1">
          <mxGeometry x="300" y="400" width="110" height="60" as="geometry" />
        </mxCell>
        <mxCell id="EvHhExTTySvwsWycsZvn-44" value="" style="endArrow=open;strokeColor=#FF0000;endFill=1;rounded=0" parent="3" edge="1">
          <mxGeometry relative="1" as="geometry">
            <mxPoint x="210" y="390" as="sourcePoint" />
            <mxPoint x="190" y="415" as="targetPoint" />
            <Array as="points" />
          </mxGeometry>
        </mxCell>
        <mxCell id="EvHhExTTySvwsWycsZvn-69" value="" style="endArrow=open;strokeColor=#FF0000;endFill=1;rounded=0;entryX=0.375;entryY=0;entryDx=0;entryDy=0;entryPerimeter=0;" parent="3" edge="1" target="EvHhExTTySvwsWycsZvn-70">
          <mxGeometry relative="1" as="geometry">
            <mxPoint x="80" y="720" as="sourcePoint" />
            <mxPoint x="80" y="830" as="targetPoint" />
            <Array as="points" />
          </mxGeometry>
        </mxCell>
        <mxCell id="EvHhExTTySvwsWycsZvn-70" value="Powiadom o rozpoczęciu&amp;nbsp;&lt;br&gt;turnieju / ligi" style="rounded=1;whiteSpace=wrap;html=1;fillColor=#a0522d;strokeColor=#6D1F00;fontColor=#ffffff;" parent="3" vertex="1">
          <mxGeometry x="40" y="840" width="104" height="47" as="geometry" />
        </mxCell>
        <mxCell id="EvHhExTTySvwsWycsZvn-92" value="" style="endArrow=open;strokeColor=#FF0000;endFill=1;rounded=0;exitX=0.391;exitY=1.01;exitDx=0;exitDy=0;exitPerimeter=0;" parent="3" source="EvHhExTTySvwsWycsZvn-97" edge="1">
          <mxGeometry relative="1" as="geometry">
            <mxPoint x="200" y="1070" as="sourcePoint" />
            <mxPoint x="200" y="1110" as="targetPoint" />
            <Array as="points" />
          </mxGeometry>
        </mxCell>
        <mxCell id="EvHhExTTySvwsWycsZvn-96" value="Wysyłanie informacji &lt;br&gt;o utworzeniu&lt;br style=&quot;border-color: var(--border-color);&quot;&gt;&lt;span style=&quot;&quot;&gt;&amp;nbsp;turnieju / ligi&lt;/span&gt;" style="html=1;shadow=0;dashed=0;align=center;verticalAlign=middle;shape=mxgraph.arrows2.arrow;dy=0;dx=10;notch=0;fillColor=#a0522d;fontColor=#ffffff;strokeColor=#6D1F00;" parent="3" vertex="1">
          <mxGeometry x="100" y="90" width="130" height="60" as="geometry" />
        </mxCell>
        <mxCell id="JqCalTuAPM29PYD1mBbm-55" value="" style="edgeStyle=none;strokeColor=#FF0000;endArrow=open;endFill=1;rounded=0;exitX=1;exitY=0.5;exitDx=0;exitDy=0;entryX=0;entryY=0.5;entryDx=0;entryDy=0;" parent="3" target="JqCalTuAPM29PYD1mBbm-50" edge="1">
          <mxGeometry width="100" height="100" relative="1" as="geometry">
            <mxPoint x="230" y="120" as="sourcePoint" />
            <mxPoint x="580" y="123" as="targetPoint" />
          </mxGeometry>
        </mxCell>
        <mxCell id="EvHhExTTySvwsWycsZvn-97" value="Wysyłanie informacji &lt;br&gt;o utworzeniu&lt;br style=&quot;border-color: var(--border-color);&quot;&gt;&lt;span style=&quot;&quot;&gt;&amp;nbsp;turnieju / ligi&lt;/span&gt;" style="html=1;shadow=0;dashed=0;align=center;verticalAlign=middle;shape=mxgraph.arrows2.arrow;dy=0;dx=10;notch=0;fillColor=#a0522d;fontColor=#ffffff;strokeColor=#6D1F00;" parent="3" vertex="1">
          <mxGeometry x="150" y="1000" width="130" height="60" as="geometry" />
        </mxCell>
        <mxCell id="EvHhExTTySvwsWycsZvn-106" value="" style="ellipse;html=1;shape=endState;fillColor=#000000;strokeColor=#ff0000;" parent="3" vertex="1">
          <mxGeometry x="180" y="1110" width="40" height="40" as="geometry" />
        </mxCell>
        <mxCell id="4" value="Gracz" style="swimlane;whiteSpace=wrap" parent="1" vertex="1">
          <mxGeometry x="760" y="30" width="400" height="1300" as="geometry" />
        </mxCell>
        <mxCell id="EvHhExTTySvwsWycsZvn-45" value="" style="endArrow=open;strokeColor=#FF0000;endFill=1;rounded=0" parent="4" edge="1">
          <mxGeometry relative="1" as="geometry">
            <mxPoint x="-20" y="430" as="sourcePoint" />
            <mxPoint x="250" y="430" as="targetPoint" />
            <Array as="points" />
          </mxGeometry>
        </mxCell>
        <mxCell id="39" value="" style="endArrow=open;strokeColor=#FF0000;endFill=1;rounded=0" parent="4" edge="1">
          <mxGeometry relative="1" as="geometry">
            <mxPoint x="234.5" y="160" as="sourcePoint" />
            <mxPoint x="235" y="235" as="targetPoint" />
            <Array as="points" />
          </mxGeometry>
        </mxCell>
        <mxCell id="JqCalTuAPM29PYD1mBbm-57" value="" style="strokeWidth=2;html=1;shape=mxgraph.flowchart.decision;whiteSpace=wrap;fillColor=#d5e8d4;strokeColor=#82b366;" parent="4" vertex="1">
          <mxGeometry x="215.93000000000006" y="235" width="38.13" height="40" as="geometry" />
        </mxCell>
        <mxCell id="JqCalTuAPM29PYD1mBbm-58" value="decyzja o wzięciu udziału w turnieju" style="text;html=1;align=center;verticalAlign=middle;whiteSpace=wrap;rounded=0;" parent="4" vertex="1">
          <mxGeometry x="270" y="225" width="110" height="60" as="geometry" />
        </mxCell>
        <mxCell id="JqCalTuAPM29PYD1mBbm-60" value="" style="endArrow=open;strokeColor=#FF0000;endFill=1;rounded=0" parent="4" edge="1">
          <mxGeometry relative="1" as="geometry">
            <mxPoint x="240" y="275" as="sourcePoint" />
            <mxPoint x="290" y="335" as="targetPoint" />
            <Array as="points" />
          </mxGeometry>
        </mxCell>
        <mxCell id="JqCalTuAPM29PYD1mBbm-77" value="" style="endArrow=open;strokeColor=#FF0000;endFill=1;rounded=0;entryX=0.341;entryY=-0.02;entryDx=0;entryDy=0;entryPerimeter=0;" parent="4" target="EvHhExTTySvwsWycsZvn-39" edge="1">
          <mxGeometry relative="1" as="geometry">
            <mxPoint x="230" y="275" as="sourcePoint" />
            <mxPoint x="160" y="355" as="targetPoint" />
            <Array as="points" />
          </mxGeometry>
        </mxCell>
        <mxCell id="JqCalTuAPM29PYD1mBbm-79" value="tak" style="text;html=1;align=center;verticalAlign=middle;whiteSpace=wrap;rounded=0;" parent="4" vertex="1">
          <mxGeometry x="170" y="295" width="30" height="10" as="geometry" />
        </mxCell>
        <mxCell id="JqCalTuAPM29PYD1mBbm-78" value="nie" style="text;html=1;align=center;verticalAlign=middle;whiteSpace=wrap;rounded=0;" parent="4" vertex="1">
          <mxGeometry x="270" y="295" width="30" height="10" as="geometry" />
        </mxCell>
        <mxCell id="JqCalTuAPM29PYD1mBbm-80" value="" style="ellipse;html=1;shape=endState;fillColor=#000000;strokeColor=#ff0000;" parent="4" vertex="1">
          <mxGeometry x="280" y="338" width="30" height="27" as="geometry" />
        </mxCell>
        <mxCell id="EvHhExTTySvwsWycsZvn-39" value="zapisz się do turnieju / ligi" style="rounded=1;whiteSpace=wrap;html=1;fillColor=#f8cecc;strokeColor=#b85450;" parent="4" vertex="1">
          <mxGeometry x="110" y="350" width="104" height="47" as="geometry" />
        </mxCell>
        <mxCell id="JqCalTuAPM29PYD1mBbm-50" value="Odbieranie informacji&amp;nbsp;&lt;br&gt;o utworzonym turnieju/lidze" style="shape=step;perimeter=stepPerimeter;whiteSpace=wrap;html=1;fixedSize=1;size=10;fillColor=#a0522d;fontColor=#ffffff;strokeColor=#6D1F00;" parent="4" vertex="1">
          <mxGeometry x="160" y="90" width="180" height="65" as="geometry" />
        </mxCell>
        <mxCell id="EvHhExTTySvwsWycsZvn-67" value="odbiór info. o nie przyjęciu na turniej / ligę" style="rounded=1;whiteSpace=wrap;html=1;fillColor=#f8cecc;strokeColor=#b85450;" parent="4" vertex="1">
          <mxGeometry x="250" y="400" width="110" height="60" as="geometry" />
        </mxCell>
        <mxCell id="EvHhExTTySvwsWycsZvn-68" value="" style="endArrow=open;strokeColor=#FF0000;endFill=1;rounded=0;entryX=0.289;entryY=0.989;entryDx=0;entryDy=0;entryPerimeter=0;" parent="4" edge="1">
          <mxGeometry relative="1" as="geometry">
            <mxPoint x="301.33" y="400" as="sourcePoint" />
            <mxPoint x="299.99999999999983" y="364.703" as="targetPoint" />
            <Array as="points" />
          </mxGeometry>
        </mxCell>
        <mxCell id="EvHhExTTySvwsWycsZvn-94" value="" style="endArrow=open;strokeColor=#FF0000;endFill=1;rounded=0;exitX=1;exitY=0.5;exitDx=0;exitDy=0;" parent="4" edge="1">
          <mxGeometry relative="1" as="geometry">
            <mxPoint x="-150" y="1030" as="sourcePoint" />
            <mxPoint x="150" y="1030" as="targetPoint" />
            <Array as="points" />
          </mxGeometry>
        </mxCell>
        <mxCell id="EvHhExTTySvwsWycsZvn-98" value="Rozpocznij turniej / ligę" style="rounded=1;whiteSpace=wrap;html=1;fillColor=#f8cecc;strokeColor=#b85450;" parent="4" vertex="1">
          <mxGeometry x="180" y="1120" width="110" height="50" as="geometry" />
        </mxCell>
        <mxCell id="EvHhExTTySvwsWycsZvn-100" value="Powiadomienie graczy o rozpoczęciu turnieju / ligi" style="shape=step;perimeter=stepPerimeter;whiteSpace=wrap;html=1;fixedSize=1;size=10;fillColor=#a0522d;fontColor=#ffffff;strokeColor=#6D1F00;" parent="4" vertex="1">
          <mxGeometry x="140" y="1000" width="180" height="65" as="geometry" />
        </mxCell>
        <mxCell id="EvHhExTTySvwsWycsZvn-101" value="" style="endArrow=open;strokeColor=#FF0000;endFill=1;rounded=0;entryX=0.46;entryY=-0.04;entryDx=0;entryDy=0;entryPerimeter=0;" parent="4" edge="1">
          <mxGeometry relative="1" as="geometry">
            <mxPoint x="240" y="1070" as="sourcePoint" />
            <mxPoint x="240.5999999999999" y="1118.0000000000002" as="targetPoint" />
            <Array as="points" />
          </mxGeometry>
        </mxCell>
        <mxCell id="EvHhExTTySvwsWycsZvn-103" value="" style="endArrow=open;strokeColor=#FF0000;endFill=1;rounded=0" parent="4" edge="1">
          <mxGeometry relative="1" as="geometry">
            <mxPoint x="240" y="1170" as="sourcePoint" />
            <mxPoint x="240" y="1210" as="targetPoint" />
            <Array as="points" />
          </mxGeometry>
        </mxCell>
        <mxCell id="EvHhExTTySvwsWycsZvn-104" value="" style="ellipse;html=1;shape=endState;fillColor=#000000;strokeColor=#ff0000;" parent="4" vertex="1">
          <mxGeometry x="220" y="1210" width="40" height="40" as="geometry" />
        </mxCell>
        <mxCell id="EvHhExTTySvwsWycsZvn-43" value="" style="endArrow=open;strokeColor=#FF0000;endFill=1;rounded=0;exitX=-0.038;exitY=0.299;exitDx=0;exitDy=0;exitPerimeter=0;entryX=1;entryY=0.5;entryDx=0;entryDy=0;" parent="1" source="EvHhExTTySvwsWycsZvn-39" target="EvHhExTTySvwsWycsZvn-47" edge="1">
          <mxGeometry relative="1" as="geometry">
            <mxPoint x="700" y="400" as="sourcePoint" />
            <mxPoint x="570" y="400" as="targetPoint" />
            <Array as="points" />
          </mxGeometry>
        </mxCell>
        <mxCell id="EvHhExTTySvwsWycsZvn-90" value="" style="endArrow=open;strokeColor=#FF0000;endFill=1;rounded=0;exitX=1;exitY=0.5;exitDx=0;exitDy=0;entryX=0;entryY=0.5;entryDx=0;entryDy=0;entryPerimeter=0;" parent="1" source="EvHhExTTySvwsWycsZvn-86" edge="1" target="EvHhExTTySvwsWycsZvn-97">
          <mxGeometry relative="1" as="geometry">
            <mxPoint x="380" y="1060" as="sourcePoint" />
            <mxPoint x="470" y="1070" as="targetPoint" />
            <Array as="points" />
          </mxGeometry>
        </mxCell>
      </root>
    </mxGraphModel>
  </diagram>
</mxfile>
